<svg height="512pt" viewBox="0 0 512 512" width="512pt" xmlns="http://www.w3.org/2000/svg"><path d="m418.386719 106.121094-79.378907-96.121094h-30.570312l30.632812 97.417969v52.222656l-30.632812 97.417969h30.570312l79.378907-96.117188zm0 0" fill="#ccddde"/><path d="m284.546875 159.640625h166.726563c20.132812 0 39.027343-9.726563 50.726562-26.109375-11.699219-16.386719-30.59375-26.113281-50.726562-26.113281h-166.671876l-17.007812-27.15625h-33.292969l18.3125 53.171875-18.3125 53.363281h33.292969zm0 0" fill="#e2ecec"/><path d="m93.613281 351.058594 79.378907-96.117188h30.570312l-30.632812 97.417969v52.222656l30.632812 97.417969h-30.570312l-79.378907-96.121094zm0 0" fill="#ccddde"/><path d="m227.453125 404.582031h-166.726563c-20.132812 0-39.027343-9.726562-50.726562-26.113281 11.699219-16.382812 30.59375-26.109375 50.726562-26.109375h166.671876l17.007812-27.15625h33.292969l-18.3125 53.167969 18.3125 53.367187h-33.292969zm0 0" fill="#e2ecec"/><path d="m339.007812 267.058594c2.980469 0 5.808594-1.332032 7.710938-3.632813l77.449219-93.785156h27.105469c23.3125 0 45.320312-11.324219 58.867187-30.300781 2.480469-3.476563 2.480469-8.144532 0-11.621094-13.546875-18.972656-35.554687-30.300781-58.867187-30.300781h-27.105469l-77.449219-93.785157c-1.902344-2.300781-4.730469-3.632812-7.710938-3.632812h-30.570312c-3.183594 0-6.175781 1.515625-8.0625 4.085938-1.882812 2.566406-2.433594 5.875-1.476562 8.914062l26.542968 84.417969h-35.304687l-14.066407-22.464844c-1.828124-2.917969-5.03125-4.691406-8.476562-4.691406h-33.292969c-3.230469 0-6.265625 1.5625-8.140625 4.195312-1.878906 2.628907-2.367187 6.007813-1.3125 9.0625l17.1875 49.921875-17.191406 50.109375c-1.050781 3.054688-.558594 6.429688 1.320312 9.058594 1.875 2.628906 4.90625 4.1875 8.136719 4.1875h33.292969c3.449219 0 6.65625-1.777344 8.484375-4.703125l14.011719-22.453125h35.351562l-26.542968 84.421875c-.957032 3.035156-.40625 6.347656 1.476562 8.914062 1.886719 2.566407 4.878906 4.082032 8.0625 4.082032zm-16.941406-247.058594h12.226563l63.933593 77.417969h-51.820312zm-37.519531 129.640625c-3.453125 0-6.65625 1.78125-8.484375 4.707031l-14.011719 22.449219h-13.746093l13.765624-40.117187c.726563-2.105469.722657-4.394532-.003906-6.5l-13.742187-39.917969h13.734375l14.066406 22.464843c1.828125 2.917969 5.03125 4.691407 8.476562 4.691407h54.390626c.027343 0 .050781.003906.074218.003906.027344 0 .050782-.003906.078125-.003906h112.128907c14.328124 0 27.976562 5.914062 37.765624 16.113281-9.789062 10.195312-23.4375 16.109375-37.765624 16.109375h-112.140626c-.023437 0-.050781 0-.078124 0zm61.859375 20h51.824219l-63.933594 77.417969h-12.230469zm0 0"/><path d="m50 143.527344h149c5.523438 0 10-4.476563 10-10 0-5.519532-4.476562-10-10-10h-149c-5.523438 0-10 4.480468-10 10 0 5.523437 4.476562 10 10 10zm0 0"/><path d="m10 143.53125c2.628906 0 5.210938-1.070312 7.070312-2.933594 1.859376-1.859375 2.929688-4.4375 2.929688-7.066406 0-2.632812-1.070312-5.210938-2.929688-7.070312-1.859374-1.859376-4.441406-2.929688-7.070312-2.929688s-5.210938 1.066406-7.070312 2.929688c-1.859376 1.859374-2.929688 4.4375-2.929688 7.070312 0 2.628906 1.070312 5.207031 2.929688 7.066406 1.859374 1.863282 4.441406 2.933594 7.070312 2.933594zm0 0"/><path d="m285.839844 319.394531c-1.875-2.628906-4.910156-4.191406-8.140625-4.191406h-33.292969c-3.445312 0-6.648438 1.773437-8.476562 4.691406l-14.066407 22.464844h-35.304687l26.542968-84.421875c.953126-3.035156.40625-6.347656-1.480468-8.914062-1.882813-2.566407-4.875-4.082032-8.0625-4.082032h-30.566406c-2.980469 0-5.808594 1.332032-7.710938 3.632813l-77.453125 93.785156h-27.097656c-23.316407 0-45.320313 11.328125-58.867188 30.300781-2.480469 3.476563-2.480469 8.144532 0 11.621094 13.546875 18.972656 35.550781 30.300781 58.867188 30.300781h27.101562l77.453125 93.785157c1.898438 2.300781 4.726563 3.632812 7.710938 3.632812h30.566406c3.183594 0 6.175781-1.515625 8.0625-4.085938 1.882812-2.566406 2.433594-5.875 1.476562-8.914062l-26.542968-84.417969h35.351562l14.015625 22.449219c1.824219 2.929688 5.03125 4.707031 8.480469 4.707031h33.292969c3.230469 0 6.261719-1.5625 8.140625-4.1875 1.875-2.628906 2.367187-6.003906 1.320312-9.058593l-17.195312-50.113282 17.191406-49.917968c1.050781-3.058594.558594-6.433594-1.316406-9.066407zm-108.136719-54.453125h12.230469l-24.339844 77.417969h-51.824219zm12.230469 227.058594h-12.226563l-63.933593-77.417969h51.820312zm60.015625-70.261719-14.011719-22.453125c-1.828125-2.925781-5.03125-4.703125-8.484375-4.703125h-54.503906c-.027344 0-.058594 0-.089844 0h-112.128906c-14.332031 0-27.980469-5.914062-37.769531-16.109375 9.789062-10.199218 23.4375-16.113281 37.769531-16.113281h112.125c.027343 0 .050781.003906.078125.003906.023437 0 .050781-.003906.074218-.003906h54.390626c3.445312 0 6.648437-1.773437 8.476562-4.691406l14.066406-22.464844h13.738282l-13.746094 39.914063c-.726563 2.109374-.726563 4.398437-.003906 6.503906l13.765624 40.117187zm0 0"/><path d="m462 368.472656h-149c-5.523438 0-10 4.476563-10 10 0 5.519532 4.476562 10 10 10h149c5.523438 0 10-4.480468 10-10 0-5.523437-4.476562-10-10-10zm0 0"/><path d="m509.070312 371.398438c-1.859374-1.859376-4.441406-2.929688-7.070312-2.929688s-5.210938 1.070312-7.070312 2.929688c-1.859376 1.859374-2.929688 4.441406-2.929688 7.070312s1.070312 5.210938 2.929688 7.070312c1.859374 1.859376 4.441406 2.929688 7.070312 2.929688s5.210938-1.070312 7.070312-2.929688c1.859376-1.859374 2.929688-4.441406 2.929688-7.070312s-1.070312-5.207031-2.929688-7.070312zm0 0"/></svg>