<svg height="512" viewBox="0 0 60 60" width="512" xmlns="http://www.w3.org/2000/svg"><g id="Page-1" fill="none" fill-rule="evenodd"><g id="072---Search-People" fill-rule="nonzero"><circle id="Oval" cx="35.5" cy="11.5" fill="#ffe0b2" r="10.5"/><path id="Shape" d="m35.5 1c-.5021893.00404615-1.0034545.04381319-1.5.119 5.164515.73991819 8.9997179 5.1637503 8.9997179 10.381s-3.8352029 9.6410818-8.9997179 10.381c3.8905827.5651296 7.7707391-1.0915438 10.053394-4.2924018 2.2826548-3.200858 2.5849523-7.4090402.7832456-10.90330091-1.8017067-3.4942607-5.4052284-5.68852894-9.3366396-5.68529729z" fill="#dfc49c"/><path id="Shape" d="m20.68 28.79c-2.3464377 2.0829126-3.6864472 5.0724447-3.68 8.21v9h-14c-1.10320187-.0032948-1.9967052-.8967981-2-2v-7c0-4.9705627 4.02943725-9 9-9h7c1.2690629-.0030157 2.5239911.2663846 3.68.79z" fill="#673ab7"/><path id="Shape" d="m17 28-3.0000232-.000025c1.2690861-.0029907 2.5240143.2664096 3.6800232.790025-2.3464377 2.0829126-3.6864472 5.0724447-3.68 8.21l-.0000232 9h3.0000232v-9c-.0064472-3.1375553 1.3335623-6.1270874 3.68-8.21-1.1560089-.5236154-2.4109371-.7930157-3.68-.79z" fill="#4527a0"/><path id="Shape" d="m36.81 27.81c-4.2591214 4.2571117-5.0370632 10.8820309-1.88 16.01l-6.18 6.18h-9.75c-1.1032019-.0032948-1.9967052-.8967981-2-2v-11c0-6.0751322 4.9248678-11 11-11h11.07c-.8192577.5160664-1.5774239 1.1232703-2.26 1.81z" fill="#ff9801"/><path id="Shape" d="m39.07 26h-3c-.8192577.5160664-1.5774239 1.1232703-2.26 1.81-4.2591214 4.2571117-5.0370632 10.8820309-1.88 16.01l-6.18 6.18h3l6.18-6.18c-3.1570632-5.1279691-2.3791214-11.7528883 1.88-16.01.6825761-.6867297 1.4407423-1.2939336 2.26-1.81z" fill="#f57c00"/><path id="Shape" d="m55.19 46.19c-4.1771821 4.1802245-10.6493751 5.0144182-15.75 2.03-.9641106-.5551018-1.8487828-1.2379477-2.63-2.03-.715811-.7149948-1.3466566-1.5102629-1.88-2.37-3.1570632-5.1279691-2.3791214-11.7528883 1.88-16.01.6825761-.6867297 1.4407423-1.2939336 2.26-1.81 5.6001493-3.5214791 12.9517646-2.2758585 17.0793255 2.8938347s3.7146293 12.614645-.9593255 17.2961653z" fill="#02a9f4"/><path id="Shape" d="m55.19 27.81c-2.8007809-2.8042033-6.7316053-4.1712223-10.668-3.71 6.5395649.7793441 11.4619472 6.3279379 11.4563331 12.9137753-.0056141 6.5858375-4.937449 12.1260311-11.4783331 12.8942247 5.494518.6395477 10.7916624-2.2692857 13.2005459-7.2488468 2.4088836-4.9795611 1.4014461-10.9382623-2.5105459-14.8491532z" fill="#0377bc"/><path id="Shape" d="m39.44 48.22-9.88 9.88c-1.2288336 1.2315949-3.223405 1.2338335-4.455.005-1.2315949-1.2288336-1.2338335-3.223405-.005-4.455l3.65-3.65 6.18-6.18c.5333434.8597371 1.164189 1.6550052 1.88 2.37.7812172.7920523 1.6658894 1.4748982 2.63 2.03z" fill="#f44335"/><path id="Shape" d="m36.81 46.19c-.715811-.7149948-1.3466566-1.5102629-1.88-2.37l-1.709 1.709c.194.222.378.45.589.661.7812172.7920523 1.6658894 1.4748982 2.63 2.03l-9.88 9.88c-.2164369.2102005-.4623549.3877331-.73.527 1.2227874.6700561 2.7407103.4555935 3.73-.527l9.88-9.88c-.9641106-.5551018-1.8487828-1.2379477-2.63-2.03z" fill="#c81e1e"/><circle id="Oval" cx="13.5" cy="16.5" fill="#ffe0b2" r="7.5"/><path id="Shape" d="m13.5 9c-.5038063-.00024943-1.0063519.05034017-1.5.151 3.495486.7097887 6.0075188 3.7831776 6.0075188 7.35s-2.5120328 6.6402113-6.0075188 7.35c2.8003728.5666629 5.6794588-.5069877 7.4250203-2.7688918 1.7455614-2.2619041 2.0543494-5.3191106.7963488-7.8843844-1.2580005-2.5652737-3.8642426-4.19296057-6.7213691-4.1977238z" fill="#dfc49c"/><g fill="#000"><path id="Shape" d="m7.658 11.747c-.22369537-.1426071-.49488897-.1904847-.75389253-.1330951-.25900356.0573897-.48458948.2153429-.62710747.4390951-.8415816 1.3299789-1.28471479 2.8731373-1.277 4.447 0 4.6944204 3.80557963 8.5 8.5 8.5 4.6944204 0 8.5-3.8055796 8.5-8.5s-3.8055796-8.5-8.5-8.5c-.7130428-.00180876-1.4231954.09065904-2.112.275-.3484729.09034184-.6214933.36101445-.7148412.7086942-.0933479.34767974.0073852.71870078.2637467.97143352.2563615.25273278.6287807.34816688.9750945.24987228.517968-.1381089 1.0519397-.20704097 1.588-.205 3.5898509 0 6.5 2.9101491 6.5 6.5s-2.9101491 6.5-6.5 6.5c-3.58985087 0-6.5-2.9101491-6.5-6.5-.00706107-1.1931393.32706229-2.3634385.963-3.373.29647443-.4653669.15998476-1.0829267-.305-1.38z"/><path id="Shape" d="m35.5 0c-6.3512746 0-11.5 5.14872538-11.5 11.5 0 6.3512746 5.1487254 11.5 11.5 11.5s11.5-5.1487254 11.5-11.5c-.0071642-6.34830474-5.1516953-11.4928358-11.5-11.5zm0 21c-5.2467051 0-9.5-4.2532949-9.5-9.5 0-5.24670512 4.2532949-9.5 9.5-9.5s9.5 4.25329488 9.5 9.5c-.0060617 5.2441922-4.2558078 9.4939383-9.5 9.5z"/><path id="Shape" d="m3 47h13v1c0 1.6568542 1.3431458 3 3 3h4c1.6568542 0 3-1.3431458 3-3v-12c0-.5522847-.4477153-1-1-1s-1 .4477153-1 1v12c0 .5522847-.4477153 1-1 1h-4c-.5522847 0-1-.4477153-1-1v-11c.0060624-5.5203344 4.4796656-9.9939376 10-10h6c.5522847 0 1-.4477153 1-1s-.4477153-1-1-1h-6c-2.7290528-.0007855-5.3760065.9334127-7.5 2.647-1.1175889-.4268027-2.303687-.6460614-3.5-.647h-7c-5.52033443.0060624-9.99393763 4.4796656-10 10v7c0 1.6568542 1.34314575 3 3 3zm-1-10c.00495988-4.4162219 3.58377808-7.9950401 8-8h7c.6311547.0016345 1.2598851.0781698 1.873.228-1.8544757 2.1647939-2.8735165 4.9214891-2.873 7.772v8h-8v-8c0-.5522847-.44771525-1-1-1s-1 .4477153-1 1v8h-3c-.55228475 0-1-.4477153-1-1z"/><path id="Shape" d="m23.18 55.88c.0033832 1.0972792.4392279 2.1489835 1.213 2.927 1.6228491 1.620155 4.2511509 1.620155 5.874 0l9.349-9.35c6.1603482 3.1618536 13.7066471 1.3471213 17.7558481-4.2699224 4.0492009-5.6170438 3.3856626-13.3500637-1.5612535-18.195188-4.9469162-4.8451243-12.6920589-5.3477615-18.2237121-1.1826658-5.5316531 4.1650957-7.1891171 11.7474894-3.8998825 17.8407762l-9.294 9.293c-.7803186.7777333-1.2170993 1.835297-1.213 2.937zm14.335-27.365c3.4319134-3.432141 8.5933897-4.4589559 13.0775801-2.6016305 4.4841904 1.8573253 7.4079826 6.2330111 7.4079826 11.0866305s-2.9237922 9.2293052-7.4079826 11.0866305c-4.4841904 1.8573254-9.6456667.8305105-13.0775801-2.6016305-2.2708204-2.2394479-3.5492247-5.2956816-3.5492247-8.485s1.2784043-6.2455521 3.5492247-8.485zm-11.708 25.842 8.99-8.989c.3967188.5415009.8321949 1.0535111 1.303 1.532.5470397.540887 1.1373346 1.0361997 1.765 1.481l-9.013 9.013c-.853012.8119367-2.192988.8119367-3.046 0-.8360433-.8393299-.8360433-2.1966701 0-3.036z"/></g></g></g></svg>