<svg id="Capa_1" enable-background="new 0 0 512 512" height="512" viewBox="0 0 512 512" width="512" xmlns="http://www.w3.org/2000/svg"><g><g><path d="m446.662 426.814c40.621-45.31 65.338-105.172 65.338-170.814 0-141.385-114.615-256-256-256s-256 114.615-256 256c0 65.642 24.717 125.504 65.338 170.814z" fill="#f73e3e"/></g><g><g><path d="m446.662 426.814c-9.708-28.375-20.614-54.825-29.662-62.814-22-19.425-117.305-35.119-117.305-35.119h-43.695-43.695s-95.305 15.694-117.305 35.119c-9.048 7.989-19.954 34.439-29.662 62.814 46.87 52.282 114.919 85.186 190.662 85.186s143.792-32.904 190.662-85.186z" fill="#ccc"/></g><g><path d="m360.621 477c-96.1 0-179.817-52.962-223.596-131.281-18.118 5.322-34.435 11.579-42.025 18.281-9.048 7.989-19.954 34.439-29.662 62.814 46.87 52.282 114.919 85.186 190.662 85.186 48.159 0 93.205-13.308 131.68-36.433-8.893.937-17.918 1.433-27.059 1.433z" fill="#b3b3b3"/></g><path d="m270.852 408.281-14.852-22.553-14.852 22.554-12.9 102.228c9.116.982 18.374 1.49 27.752 1.49s18.636-.508 27.752-1.491z" fill="#2b2b2b"/><g><path d="m271.632 411.728h-13.035c-2.277 0-22.497-1.539-23.07-3.744l-12.527-48.256h66l-12.528 48.256c-.572 2.205-2.562 3.744-4.84 3.744z" fill="#564d47"/></g><g><path d="m255.528 407.984-12.528-48.256h-20l12.528 48.257c.572 2.204 2.562 3.743 4.84 3.743h20c-2.278 0-4.268-1.54-4.84-3.744z" fill="#2b2b2b"/></g><g><path d="m212.305 216.812v112.07c0 17.036 19.563 30.846 43.695 30.846s43.695-13.81 43.695-30.846v-112.07z" fill="#eaa27f"/></g><g><path d="m212.305 216.812v112.07c46.932 0 73.247-36.019 73.247-36.019l14.143-76.05h-87.39z" fill="#dd8b6b"/></g><g><path d="m144.75 173.222c0-35.428 10.812-68.347 30.444-92.692 20.882-25.896 49.579-40.158 80.806-40.158s59.924 14.262 80.806 40.157c19.632 24.346 30.443 57.265 30.443 92.692h-222.499z" fill="#564d47"/></g><g><path d="m337.249 173.222c0 59.83-36.377 129.999-81.249 129.999s-81.249-70.169-81.249-129.999 36.376-102.85 81.249-102.85 81.249 43.019 81.249 102.85z" fill="#f6ba97"/></g><g><path d="m202.691 173.222c0-53.479 29.064-93.521 67.279-101.421-4.539-.938-9.206-1.428-13.97-1.428-44.873 0-81.249 43.019-81.249 102.849s36.377 129.999 81.249 129.999c4.764 0 9.431-.798 13.97-2.284-38.215-12.506-67.279-74.237-67.279-127.715z" fill="#eaa27f"/></g><g><path d="m212.305 315 43.695 44.728s-17 30.744-28 30.744-30.007-59.011-30.007-59.011z" fill="#e6e6e6"/></g><g><path d="m299.695 315-43.695 44.728s17 30.744 28 30.744 30.007-59.011 30.007-59.011z" fill="#e6e6e6"/></g><g><path d="m399.18 436.247-11.516 39.331c7.351-4.417 14.467-9.186 21.314-14.296v-23.629c0-5.78-8.174-6.953-9.798-1.406z" fill="#b3b3b3"/></g><g><path d="m103.022 437.651v23.629c6.847 5.111 13.963 9.879 21.314 14.296l-11.516-39.331c-1.624-5.545-9.798-4.372-9.798 1.406z" fill="#ccc"/></g><g><g><path d="m179.1 357.757-55.433 22.961c-5.102 2.113-10.952-.31-13.066-5.412l-7.654-18.478c-2.114-5.102.31-10.952 5.412-13.066l55.433-22.961c5.102-2.113 10.952.31 13.066 5.412l7.654 18.478c2.114 5.103-.309 10.952-5.412 13.066z" fill="#564d47"/></g><g><path d="m133.699 365.739-7.654-18.478c-2.114-5.103.31-10.952 5.412-13.066l-23.097 9.567c-5.102 2.113-7.526 7.963-5.412 13.066l7.654 18.478c2.114 5.103 7.963 7.525 13.066 5.412l23.097-9.567c-5.103 2.113-10.953-.31-13.066-5.412z" fill="#2b2b2b"/></g><g><circle cx="129.872" cy="356.5" fill="#ffbb16" r="7.5"/></g><g><circle cx="157.588" cy="345.02" fill="#ffbb16" r="7.5"/></g></g><g><g><path d="m388.333 380.718-55.433-22.961c-5.102-2.113-7.525-7.963-5.412-13.066l7.654-18.478c2.113-5.102 7.963-7.525 13.066-5.412l55.433 22.961c5.102 2.113 7.525 7.963 5.412 13.066l-7.654 18.478c-2.114 5.102-7.964 7.525-13.066 5.412z" fill="#564d47"/></g><g><path d="m350.585 354.258 7.654-18.478c2.114-5.103 7.963-7.525 13.066-5.412l-23.097-9.567c-5.102-2.113-10.952.309-13.066 5.412l-7.654 18.478c-2.114 5.103.31 10.952 5.412 13.066l23.097 9.567c-5.102-2.114-7.526-7.963-5.412-13.066z" fill="#2b2b2b"/></g><g><circle cx="354.412" cy="345.02" fill="#ffbb16" r="7.5"/></g><g><circle cx="382.128" cy="356.5" fill="#ffbb16" r="7.5"/></g></g><g><path d="m352.169 168.956c-.818-30.366-10.332-58.291-27.04-79.01-17.978-22.296-42.528-34.574-69.129-34.574s-51.151 12.278-69.129 34.573c-16.708 20.719-26.222 48.644-27.04 79.01h15.551c36.923-13.956 42.417-56.792 42.417-56.792s20.534 56.792 118.819 56.792h15.551z" fill="#ffbb16"/></g><g><path d="m216.871 89.945c14.541-18.032 33.382-29.508 54.129-33.239-4.904-.882-9.914-1.334-15-1.334-26.601 0-51.151 12.278-69.129 34.573-16.708 20.719-26.222 48.644-27.04 79.01h15.551c5.668-2.142 10.593-4.967 14.874-8.211 2.171-27.169 11.424-51.961 26.615-70.799z" fill="#ff931f"/></g><g><path d="m172.67 178.028-26.37 4.768-5.383-29.767c-1.317-7.282 3.519-14.252 10.801-15.569 7.282-1.317 14.252 3.519 15.569 10.801z" fill="#2b2b2b"/></g><g><path d="m339.33 178.028 26.37 4.768 5.383-29.767c1.317-7.282-3.519-14.252-10.801-15.569-7.282-1.317-14.252 3.519-15.569 10.801z" fill="#2b2b2b"/></g><g><path d="m331.83 220.625v25c0 11.046-8.954 20-20 20h-48.33c-4.142 0-7.5 3.358-7.5 7.5 0 4.142 3.358 7.5 7.5 7.5h48.331c19.33 0 35-15.67 35-35v-25z" fill="#2b2b2b"/></g><g><path d="m184.609 240.602-19.681 3.559c-10.869 1.965-21.274-5.253-23.24-16.122l-7.118-39.362c-1.965-10.869 5.253-21.274 16.122-23.24l19.681-3.559z" fill="#564d47"/></g><g><path d="m136.35 198.518 5.338 29.521c1.966 10.87 12.37 18.087 23.24 16.122l19.681-3.559-5.338-29.521-19.681 3.559c-10.87 1.966-21.274-5.252-23.24-16.122z" fill="#2b2b2b"/></g><g><path d="m328.391 240.602 19.681 3.559c10.869 1.965 21.274-5.253 23.24-16.122l7.118-39.362c1.966-10.869-5.253-21.274-16.122-23.24l-19.681-3.559z" fill="#564d47"/></g><g><path d="m376.65 198.518-5.338 29.521c-1.966 10.87-12.37 18.087-23.24 16.122l-19.681-3.559 5.338-29.521 19.681 3.559c10.87 1.966 21.274-5.252 23.24-16.122z" fill="#2b2b2b"/></g><g><path d="m185.499 245.523c-4.076.737-7.978-1.97-8.715-6.046l-13.346-73.803c-.737-4.076 1.97-7.978 6.046-8.715 4.076-.737 7.978 1.97 8.715 6.046l13.346 73.803c.736 4.076-1.97 7.978-6.046 8.715z" fill="#2b2b2b"/></g><g><path d="m327.501 245.523c-4.076-.737-6.783-4.639-6.046-8.715l13.346-73.803c.737-4.076 4.639-6.783 8.715-6.046 4.076.737 6.783 4.639 6.046 8.715l-13.346 73.803c-.737 4.076-4.639 6.783-8.715 6.046z" fill="#2b2b2b"/></g></g></g></svg>