<svg height="511pt" viewBox="1 0 511.999 511" width="511pt" xmlns="http://www.w3.org/2000/svg"><path d="m151.257812 192.125v20.109375c0 7.507813-6.085937 13.597656-13.597656 13.597656h-20.105468l-97.269532 97.265625c-13.714844 13.71875-13.714844 35.953125 0 49.671875l119.445313 119.445313c13.71875 13.714844 35.957031 13.714844 49.671875 0l97.269531-97.269532v-20.105468c0-7.511719 6.085937-13.597656 13.59375-13.597656h20.109375l171.339844-171.339844c13.714844-13.714844 13.714844-35.953125 0-49.667969l-119.449219-119.449219c-13.714844-13.714844-35.953125-13.714844-49.667969 0zm0 0" fill="#ff6371"/><path d="m491.714844 140.234375-119.449219-119.449219c-13.714844-13.714844-35.953125-13.714844-49.667969 0l-171.339844 171.339844v20.109375c0 3.753906-1.523437 7.152344-3.980468 9.613281l143.375 143.375c2.460937-2.457031 5.859375-3.980468 9.613281-3.980468h20.109375l171.339844-171.339844c13.714844-13.714844 13.714844-35.953125 0-49.667969zm0 0" fill="#fff"/><path d="m304.707031 133.242188-70.429687 58.160156v22.394531l71.378906-22.441406h38.265625l71.378906 22.441406v-22.394531l-70.429687-58.160156zm0 0" fill="#ccddde"/><path d="m343.921875 222.542969v-109.707031c0-14.75-7.125-28.59375-19.132813-37.167969-12.003906 8.570312-19.132812 22.414062-19.132812 37.167969v109.664062l-19.894531 12.460938v30.335937l38.957031-13.417969 39.101562 13.417969v-30.335937zm0 0" fill="#e2ecec"/><path d="m84.527344 422.867188c-3.902344-3.910157-10.234375-3.914063-14.140625-.011719-3.910157 3.902343-3.914063 10.234375-.011719 14.144531l.371094.367188c1.953125 1.957031 4.515625 2.933593 7.074218 2.933593 2.558594 0 5.117188-.972656 7.066407-2.921875 3.910156-3.902344 3.914062-10.234375.011719-14.140625zm0 0"/><path d="m498.785156 133.160156-119.445312-119.445312c-8.523438-8.519532-19.855469-13.214844-31.90625-13.214844-12.054688 0-23.382813 4.695312-31.90625 13.214844l-171.339844 171.339844c-1.875 1.875-2.929688 4.417968-2.929688 7.070312v20.109375c0 1.980469-1.613281 3.59375-3.59375 3.59375h-20.109374c-2.652344 0-5.195313 1.054687-7.070313 2.929687l-97.265625 97.269532c-8.527344 8.519531-13.21875 19.851562-13.21875 31.90625 0 12.050781 4.691406 23.382812 13.214844 31.902344l29.25 29.25c1.953125 1.953124 4.511718 2.929687 7.070312 2.929687 2.5625 0 5.121094-.976563 7.074219-2.929687 3.902344-3.902344 3.902344-10.234376 0-14.140626l-29.25-29.25c-4.746094-4.742187-7.359375-11.054687-7.359375-17.761718 0-6.710938 2.613281-13.019532 7.359375-17.765625l94.335937-94.339844h15.964844c13.011719 0 23.597656-10.582031 23.597656-23.59375v-15.96875l168.410157-168.40625c4.746093-4.746094 11.054687-7.359375 17.765625-7.359375 6.707031 0 13.015625 2.613281 17.761718 7.359375l119.445313 119.441406c4.746094 4.746094 7.359375 11.054688 7.359375 17.765625 0 6.710938-2.613281 13.019532-7.359375 17.765625l-101.644531 101.644531c-3.902344 3.90625-3.902344 10.238282 0 14.140626 3.90625 3.90625 10.238281 3.90625 14.144531 0l101.644531-101.644532c8.519532-8.519531 13.214844-19.851562 13.214844-31.90625 0-12.050781-4.695312-23.382812-13.214844-31.90625zm0 0"/><path d="m326.320312 341.152344-10.089843 10.089844h-15.964844c-13.011719 0-23.59375 10.585937-23.59375 23.59375v15.96875l-94.339844 94.335937c-9.796875 9.796875-25.734375 9.796875-35.527343 0l-33.628907-33.625c-3.902343-3.90625-10.234375-3.90625-14.140625 0-3.90625 3.902344-3.90625 10.234375 0 14.140625l33.625 33.628906c8.800782 8.792969 20.355469 13.191406 31.90625 13.191406 11.554688 0 23.109375-4.398437 31.90625-13.191406l97.269532-97.269531c1.875-1.875 2.929687-4.417969 2.929687-7.070313v-20.109374c0-1.984376 1.613281-3.59375 3.59375-3.59375h20.109375c2.652344 0 5.195312-1.054688 7.070312-2.929688l13.019532-13.019531c3.902344-3.902344 3.902344-10.234375 0-14.140625-3.90625-3.902344-10.238282-3.902344-14.144532 0zm0 0"/><path d="m181.753906 242.183594c-3.90625-3.90625-10.238281-3.90625-14.144531 0-3.90625 3.902344-3.90625 10.234375 0 14.140625l11.773437 11.773437c1.953126 1.953125 4.511719 2.929688 7.070313 2.929688s5.117187-.976563 7.070313-2.929688c3.90625-3.90625 3.90625-10.238281 0-14.144531zm0 0"/><path d="m221.734375 310.449219c1.953125 1.953125 4.511719 2.929687 7.070313 2.929687 2.558593 0 5.121093-.976562 7.070312-2.929687 3.90625-3.90625 3.90625-10.238281 0-14.144531l-15.21875-15.21875c-3.90625-3.90625-10.238281-3.90625-14.144531 0s-3.902344 10.238281 0 14.140624zm0 0"/><path d="m266.371094 350.945312c2.5625 0 5.121094-.976562 7.074218-2.929687 3.902344-3.90625 3.902344-10.238281 0-14.144531l-12.691406-12.691406c-3.90625-3.902344-10.238281-3.902344-14.144531 0-3.90625 3.90625-3.90625 10.238281 0 14.144531l12.691406 12.691406c1.953125 1.953125 4.511719 2.929687 7.070313 2.929687zm0 0"/><path d="m369.113281 226.476562-15.191406-9.480468v-12.011719l58.378906 18.355469c.980469.308594 1.996094.457031 3 .457031 2.101563 0 4.179688-.664063 5.917969-1.9375 2.566406-1.882813 4.082031-4.875 4.082031-8.0625v-22.394531c0-2.984375-1.332031-5.8125-3.632812-7.710938l-67.746094-55.949218v-14.90625c0-17.945313-8.71875-34.878907-23.320313-45.308594-3.476562-2.480469-8.144531-2.480469-11.621093 0-14.605469 10.425781-23.324219 27.363281-23.324219 45.308594v14.90625l-67.746094 55.949218c-2.296875 1.898438-3.628906 4.726563-3.628906 7.710938v22.394531c0 3.183594 1.515625 6.179687 4.082031 8.0625 1.738281 1.273437 3.816407 1.9375 5.917969 1.9375 1.003906 0 2.015625-.148437 3-.460937l58.378906-18.355469v11.980469l-15.207031 9.523437c-2.917969 1.828125-4.691406 5.03125-4.691406 8.476563v30.335937c0 3.230469 1.5625 6.265625 4.191406 8.140625 2.632813 1.878906 6.007813 2.367188 9.066406 1.3125l35.707031-12.296875 35.847657 12.300781c1.058593.363282 2.15625.542969 3.246093.542969 2.058594 0 4.09375-.632813 5.8125-1.863281 2.628907-1.875 4.1875-4.90625 4.1875-8.136719v-30.335937c0-3.449219-1.78125-6.65625-4.707031-8.484376zm36.1875-30.363281v4.058594l-51.378906-16.15625v-30.335937zm-161.023437 4.058594v-4.058594l51.378906-42.433593v30.335937zm109.542968 51.121094-25.855468-8.871094c-1.050782-.359375-2.148438-.542969-3.246094-.542969-1.101562 0-2.199219.183594-3.253906.546875l-25.703125 8.851563v-10.777344l15.203125-9.523438c2.917968-1.828124 4.691406-5.03125 4.691406-8.476562v-31.125c0-.03125 0-.058594 0-.089844v-78.449218c0-8.863282 3.320312-17.347657 9.132812-23.828126 5.8125 6.480469 9.132813 14.964844 9.132813 23.828126v78.441406.109375 31.15625c0 3.449219 1.777344 6.65625 4.703125 8.484375l15.191406 9.480468v10.785157zm0 0"/><path d="m150.234375 301.765625c-3.902344-3.902344-10.238281-3.902344-14.140625 0l-54.90625 54.90625c-3.90625 3.90625-3.90625 10.238281 0 14.144531 1.953125 1.953125 4.511719 2.929688 7.070312 2.929688 2.558594 0 5.121094-.980469 7.070313-2.929688l54.90625-54.90625c3.90625-3.90625 3.90625-10.238281 0-14.144531zm0 0"/><path d="m111.4375 401.0625c1.953125 1.953125 4.511719 2.929688 7.070312 2.929688 2.558594 0 5.121094-.976563 7.070313-2.929688l54.90625-54.902344c3.90625-3.90625 3.90625-10.238281 0-14.144531s-10.238281-3.90625-14.144531 0l-54.902344 54.90625c-3.90625 3.90625-3.90625 10.238281 0 14.140625zm0 0"/><path d="m141.683594 417.167969c-3.902344 3.90625-3.902344 10.238281 0 14.144531 1.953125 1.953125 4.511718 2.929688 7.074218 2.929688 2.558594 0 5.117188-.976563 7.070313-2.929688l54.902344-54.90625c3.90625-3.902344 3.90625-10.234375 0-14.140625-3.902344-3.90625-10.234375-3.90625-14.140625 0zm0 0"/><path d="m361.769531 309.820312c-2.628906 0-5.210937 1.070313-7.070312 2.929688s-2.929688 4.441406-2.929688 7.070312c0 2.628907 1.070313 5.210938 2.929688 7.070313s4.441406 2.929687 7.070312 2.929687c2.628907 0 5.210938-1.070312 7.070313-2.929687 1.871094-1.859375 2.929687-4.441406 2.929687-7.070313 0-2.628906-1.058593-5.210937-2.929687-7.070312-1.859375-1.859375-4.441406-2.929688-7.070313-2.929688zm0 0"/></svg>