<svg id="Capa_1" enable-background="new 0 0 512 512" height="512" viewBox="0 0 512 512" width="512" xmlns="http://www.w3.org/2000/svg"><g><g><path d="m404.5 439.23 56.595-30c7.537-10.072 14.343-20.72 20.354-31.862l-8.241-12.872 17.678-6.571c13.573-31.235 21.114-65.697 21.114-101.925 0-75.926-33.064-144.119-85.567-191l-41.176-14.5v-15.5c-37.939-22.238-82.104-35-129.257-35-104.437 0-194.254 62.545-234.072 152.216l10.072 8.117-17.008 9.186c-4.791 13.35-8.515 27.209-11.046 41.481l34.847 45-34.847 45c21.266 119.925 126.023 211 252.054 211 52.4 0 101.114-15.755 141.688-42.77z" fill="#69b8d4"/></g><g><path d="m408.194 409.23c-8.284 0-15 6.716-15 15s-6.716 15-15 15h-80.245c-8.284 0-15 6.716-15 15s6.716 15 15 15h99.739c24.406-16.25 45.872-36.567 63.407-60z" fill="#4da3ba"/></g><g><path d="m385.258 35h-85.342c-8.284 0-15 6.716-15 15s-6.716 15-15 15h-30.528c-8.284 0-15 6.716-15 15s6.716 15 15 15h122.869c8.284 0 15-6.716 15-15s6.716-15 15-15h34.176c-12.659-11.304-26.446-21.366-41.175-30z" fill="#4da3ba"/></g><g><path d="m0 256c0-15.354 1.355-30.39 3.946-45h187.824c8.284 0 15 6.716 15 15s6.716 15 15 15h40.207c8.284 0 15 6.716 15 15s-6.716 15-15 15h-84.268c-8.284 0-15 6.716-15 15s-6.716 15-15 15h-143.763c-2.59-14.61-3.946-29.646-3.946-45z" fill="#4da3ba"/></g><g><g><path d="m212.343 385.785v24.751c0 2.337-1.496 4.412-3.713 5.151-18.737 6.246-38.994 6.246-57.732 0-2.217-.739-3.713-2.814-3.713-5.151v-24.751c0-2.337 1.496-4.412 3.713-5.151 18.737-6.246 38.994-6.246 57.732 0 2.218.739 3.713 2.814 3.713 5.151z" fill="#ccc"/></g><g><path d="m154.686 378.512v39.298c0 4.142-3.358 7.5-7.5 7.5-4.142 0-7.5-3.358-7.5-7.5v-39.298c0-4.142 3.358-7.5 7.5-7.5 4.142 0 7.5 3.358 7.5 7.5z" fill="#5d91c9"/></g><g><path d="m382.476 350.379 85.796-100.967c2.063-2.428 5.089-3.828 8.275-3.828h14.434c3.592 0 6.195 3.426 5.231 6.887l-31.203 112.025z" fill="#5d91c9"/></g><g><path d="m484.555 245.584h6.426c3.592 0 6.195 3.426 5.231 6.887l-31.203 112.025-13.914-42.19c-1.864-5.651-1.327-11.819 1.484-17.063z" fill="#3d72a3"/></g><g><path d="m490.9 357.92c-2.88 6.64-6.03 13.13-9.45 19.45-98 13.84-196.86 20.79-295.86 20.79h-174.71c-6.51 0-10.88-5.33-10.88-10.93 0-2.53.9-5.12 2.9-7.29 6.12-6.64 16.87-12.57 24.11-17.74 21.83-15.57 44.16-24.13 71.42-24.13h174.8c40.17 0 80.3 2.01 120.22 6.02 32.65 3.28 65.16 7.89 97.45 13.83z" fill="#e6e6e6"/></g><g><path d="m45.213 379.941c24.598-26.688 59.238-41.87 95.533-41.87h-42.317c-22.263 0-43.903 5.712-62.985 16.288-3.914 2.169-.72 4.543-4.402 7.114-4.039 2.82-14.928 5.878-18.646 9.164-3.308 2.923-6.479 6.027-9.5 9.304-6.413 6.958-1.478 18.219 7.985 18.219h42.317c-9.463.001-14.398-11.261-7.985-18.219z" fill="#ccc"/></g><g><path d="m208.971 387.444 134.615-30.643c3.954-.9 7.997-1.354 12.052-1.354h16.374c2.34 0 3.025 3.191.893 4.152l-109.637 49.421h-54.298v-21.576z" fill="#3d72a3"/></g><g><path d="m219.83 425.309 32.662-4.083c6.156-.77 10.776-6.003 10.776-12.206 0-6.204-4.62-11.437-10.776-12.206l-32.662-4.083z" fill="#5d91c9"/></g><g><path d="m176.392 396.644v24.751c0 2.337 1.496 4.412 3.713 5.151 18.737 6.246 38.994 6.246 57.732 0 2.217-.739 3.713-2.814 3.713-5.151v-24.751c0-2.337-1.496-4.412-3.713-5.151-18.737-6.246-38.994-6.246-57.732 0-2.217.739-3.713 2.814-3.713 5.151z" fill="#e6e6e6"/></g><g><path d="m204.084 409.338c0-10.803 7.832-19.757 18.123-21.547-14.059-2.061-28.481-.838-42.102 3.702-2.217.739-3.713 2.814-3.713 5.151v24.751c0 2.337 1.496 4.412 3.713 5.151 13.052 4.351 26.84 5.662 40.339 3.951-9.407-2.454-16.36-10.983-16.36-21.159z" fill="#ccc"/></g><g><path d="m183.892 389.371v39.298c0 4.142-3.358 7.5-7.5 7.5-4.142 0-7.5-3.358-7.5-7.5v-39.298c0-4.142 3.358-7.5 7.5-7.5 4.142 0 7.5 3.358 7.5 7.5z" fill="#5d91c9"/></g><g><path d="m35.462 354.361h42.263c0 8.996-7.293 16.289-16.289 16.289h-49.05c7.114-6.289 14.86-11.737 23.076-16.289z" fill="#5d91c9"/></g><g><path d="m35.462 354.361c-8.217 4.553-15.962 10.001-23.076 16.289h20c7.114-6.288 14.859-11.736 23.076-16.289z" fill="#3d72a3"/></g></g><g><g><path d="m299.657 180.2v24.751c0 2.337 1.496 4.412 3.713 5.151 18.737 6.246 38.994 6.246 57.732 0 2.217-.739 3.713-2.814 3.713-5.151v-24.751c0-2.337-1.496-4.412-3.713-5.151-18.737-6.246-38.994-6.246-57.732 0-2.218.739-3.713 2.814-3.713 5.151z" fill="#ccc"/></g><g><path d="m357.314 172.927v39.298c0 4.142 3.358 7.5 7.5 7.5 4.142 0 7.5-3.358 7.5-7.5v-39.298c0-4.142-3.358-7.5-7.5-7.5-4.142 0-7.5 3.358-7.5 7.5z" fill="#f73e3e"/></g><g><path d="m129.525 144.794-85.796-100.966c-2.063-2.429-5.089-3.828-8.275-3.828h-14.434c-3.592 0-6.195 3.426-5.231 6.887l31.203 112.025z" fill="#f73e3e"/></g><g><path d="m27.445 40h-6.425c-3.592 0-6.195 3.426-5.231 6.887l31.203 112.025 13.914-42.19c1.864-5.651 1.327-11.818-1.484-17.063z" fill="#d82525"/></g><g><path d="m512 181.65c0 4.73-3.12 9.27-8.01 10.57-.9.23-1.86.36-2.87.36h-174.71c-104.24 0-208.33-7.71-311.42-23.06 2.1-5.88 4.42-11.66 6.94-17.33 32.02-5.86 64.25-10.43 96.62-13.68 39.92-4.01 80.05-6.02 120.22-6.02h174.8c22.264 0 43.906 5.711 62.987 16.295 5.85 3.245 3.487 7.733 8.799 11.87 2.141 1.66 12.208 2.607 14.249 4.409 3.307 2.918 6.477 6.02 9.494 9.297 2.001 2.169 2.901 4.759 2.901 7.289z" fill="#e6e6e6"/></g><g><g><path d="m266.729 191.714c.51.029 1.023.045 1.539.048-.513-.014-1.026-.034-1.539-.048z" fill="#fff"/><path d="m268.267 192.262c-.525-.002-1.047-.019-1.565-.049l.043-.999 1.538.048z"/></g><g><path d="m268.44 191.767c-.057 0-.114-.004-.171-.004.057.001.114.004.171.005z" fill="#fff"/><path d="m268.431 192.268-.099-.004-.055-1.002.014.105-.005-.105.153.006v-.001z"/></g><g><path d="m268.44 132.487h-29.674c-72.743 0-145.317 6.622-216.837 19.729-2.515 5.663-4.83 11.433-6.936 17.303 83.408 12.415 167.471 19.817 251.738 22.195-15.573-.887-27.929-13.792-27.929-29.587-.002-16.37 13.268-29.64 29.638-29.64z" fill="#ccc"/></g></g><g><path d="m303.029 181.86-134.615-30.643c-3.954-.9-7.997-1.354-12.052-1.354h-16.372c-2.339 0-3.025 3.19-.893 4.152l109.635 49.422h54.298v-21.577z" fill="#d82525"/></g><g><path d="m292.17 219.725-32.662-4.083c-6.156-.77-10.776-6.003-10.776-12.206 0-6.204 4.62-11.437 10.776-12.206l32.662-4.083z" fill="#f73e3e"/></g><g><path d="m270.451 191.06v24.751c0 2.337 1.496 4.412 3.713 5.151 18.737 6.246 38.994 6.246 57.732 0 2.217-.739 3.713-2.814 3.713-5.151v-24.751c0-2.337-1.496-4.412-3.713-5.151-18.737-6.246-38.994-6.246-57.732 0-2.218.739-3.713 2.814-3.713 5.151z" fill="#e6e6e6"/></g><g><path d="m328.108 183.787v39.298c0 4.142 3.358 7.5 7.5 7.5 4.142 0 7.5-3.358 7.5-7.5v-39.298c0-4.142-3.358-7.5-7.5-7.5-4.142 0-7.5 3.358-7.5 7.5z" fill="#f73e3e"/></g><g><path d="m476.538 148.776h-42.263c0 8.996 7.293 16.289 16.289 16.289h49.049c-7.113-6.288-14.858-11.736-23.075-16.289z" fill="#5d91c9"/></g><g><path d="m455.994 148.776h-21.719c0 8.996 7.293 16.289 16.289 16.289h21.719c-8.996 0-16.289-7.292-16.289-16.289z" fill="#3d72a3"/></g><g><path d="m298.143 203.753c0-10.803 7.832-19.757 18.123-21.547-14.059-2.061-28.481-.838-42.102 3.702-2.217.739-3.713 2.814-3.713 5.151v24.751c0 2.337 1.496 4.412 3.713 5.151 13.052 4.351 26.84 5.662 40.339 3.951-9.407-2.453-16.36-10.982-16.36-21.159z" fill="#ccc"/></g></g></g></svg>