<svg id="Layer_2" height="512" viewBox="0 0 128 128" width="512" xmlns="http://www.w3.org/2000/svg" data-name="Layer 2"><path d="m87.783 38.333a10.958 10.958 0 0 1 -6.459 9.992 42.2 42.2 0 0 1 -34.647 0 10.958 10.958 0 0 1 -6.459-9.992h-.358v5.252a21.442 21.442 0 0 0 .483 4.51l1.457 6.648 1.534 7.039c.135.6.291 1.193.469 1.776s.384 1.143.611 1.7a21.158 21.158 0 0 0 39.177 0c.227-.561.433-1.129.611-1.7s.334-1.172.469-1.776l1.529-7.039 1.456-6.648a21.442 21.442 0 0 0 .483-4.51v-5.252z" fill="#ffeadb"/><path d="m40.344 48.094a21.155 21.155 0 0 1 -.487-4.512v-1.26a6.567 6.567 0 1 0 1.943 12.423z" fill="#ffeadb"/><path d="m63.879 65.771a10.071 10.071 0 0 1 -7.793-3.25 1.75 1.75 0 0 1 2.7-2.225 6.676 6.676 0 0 0 5.091 1.975 6.678 6.678 0 0 0 5.093-1.971 1.75 1.75 0 0 1 2.7 2.226 10.071 10.071 0 0 1 -7.791 3.245z" fill="#8b788a"/><path d="m88.795 42.254a5.953 5.953 0 0 0 -.654.05v1.281a21.438 21.438 0 0 1 -.483 4.51l-1.458 6.648-.02.093a6.5 6.5 0 0 0 2.613.558 6.57 6.57 0 1 0 0-13.14z" fill="#ffeadb"/><path d="m88.382 31.765h-48.764l-6.8-4.349a10.2 10.2 0 0 1 -4.753-8.583 10.292 10.292 0 0 1 7.3-9.77l18.244-5.724a34.761 34.761 0 0 1 20.782 0l18.246 5.723a10.292 10.292 0 0 1 7.3 9.77 10.2 10.2 0 0 1 -4.753 8.583z" fill="#8ac9ff"/><path d="m39.618 31.765h48.764v6.568h-48.764z" fill="#5e3369"/><path d="m64 25.745a1.746 1.746 0 0 1 -.512-.077l-11.918-3.646a1.75 1.75 0 0 1 1.024-3.347l11.406 3.49 11.405-3.49a1.75 1.75 0 1 1 1.023 3.347l-11.916 3.646a1.746 1.746 0 0 1 -.512.077z" fill="#7aacf4"/><path d="m64 16.713a1.743 1.743 0 0 1 -.512-.077l-5.629-1.723a1.75 1.75 0 0 1 1.024-3.347l5.117 1.567 5.117-1.566a1.75 1.75 0 1 1 1.023 3.347l-5.628 1.723a1.743 1.743 0 0 1 -.512.076z" fill="#7aacf4"/><path d="m117.55 111.38v14.87h-107.1v-14.87a21.643 21.643 0 0 1 19.53-21.54l4.28-.42 18.17 18.2 11.96-11.37 11.95 11.37 18.11-18.13 3.57.35a21.643 21.643 0 0 1 19.53 21.54z" fill="#e2e9f2"/><path d="m78.873 85.724a10.822 10.822 0 0 1 -1.273-3.163l-1.058-8.274a21.086 21.086 0 0 1 -25.082 0l-1.06 8.274a6.706 6.706 0 0 1 -1.031 2.776l15.019 10.913z" fill="#ffd5b7"/><path d="m64.388 96.25-15.018-10.913a6.734 6.734 0 0 1 -1.37 1.551c-.069.058-.137.117-.209.172-.147.112-.3.22-.452.32-.173.113-.354.213-.538.31-.136.071-.273.138-.414.2a6.6 6.6 0 0 1 -.728.269c-.1.029-.191.056-.288.081a6.638 6.638 0 0 1 -1 .186l-10.1.993 18.174 18.206z" fill="#5e3369"/><path d="m78.873 85.724-14.485 10.526 11.954 11.375 18.1-18.137-10.805-1.062a6.732 6.732 0 0 1 -1.022-.19c-.071-.018-.142-.036-.212-.056a6.714 6.714 0 0 1 -.921-.341c-.056-.026-.109-.056-.165-.083a6.723 6.723 0 0 1 -.755-.435c-.05-.033-.1-.063-.152-.1a6.776 6.776 0 0 1 -.732-.6c-.061-.057-.119-.116-.178-.175a6.77 6.77 0 0 1 -.627-.722z" fill="#5e3369"/><path d="m56.887 103.387 5.238 6.363h4.525l5.238-6.363-7.5-7.137z" fill="#8ac9ff"/><path d="m98.023 89.84-.523-.051v7.337l11.75 5.874 3.922-4.669a21.6 21.6 0 0 0 -15.149-8.491z" fill="#ffbd4a"/><path d="m105.563 92.008c-.012.022-.029.041-.04.063l-3.605 7.262 3.13 1.565 3.51-7.071a21.583 21.583 0 0 0 -2.995-1.819z" fill="#fc9f4a"/><path d="m29.98 89.84a21.612 21.612 0 0 0 -15.263 8.647l3.792 4.513 11.75-5.875v-7.312z" fill="#ffbd4a"/><path d="m29.98 89.84a21.612 21.612 0 0 0 -15.263 8.647l3.792 4.513 11.75-5.875v-7.312z" fill="#ffbd4a"/><path d="m22.708 100.895 3.129-1.565-3.587-7.23a21.586 21.586 0 0 0 -2.983 1.862z" fill="#fc9f4a"/><path d="m103.75 118v8.25h-3.5v-8.25a1.75 1.75 0 0 1 3.5 0z" fill="#c1cedb"/><path d="m27.51 118v8.25h-3.5v-8.25a1.75 1.75 0 0 1 3.5 0z" fill="#c1cedb"/><path d="m87.783 38.333a10.958 10.958 0 0 1 -6.459 9.992 42.2 42.2 0 0 1 -34.647 0 10.958 10.958 0 0 1 -6.459-9.992z" fill="#c9cf4f"/><path d="m74.588 126.25-7.938-16.5h-4.525l-7.938 16.5z" fill="#8ac9ff"/></svg>