<svg id="Capa_1" enable-background="new 0 0 512 512" height="512" viewBox="0 0 512 512" width="512" xmlns="http://www.w3.org/2000/svg"><g><g><path d="m493.378 299 17.092-15h.007c1.001-9.197 1.523-18.537 1.523-28 0-141.385-114.615-256-256-256-61.93 0-118.722 21.992-162.997 58.591l7.306 19.409-37.987 10.591c-38.83 44.883-62.322 103.402-62.322 167.409 0 46.63 12.473 90.345 34.257 128l221.743 64 221.743-64c12.465-21.547 21.874-45.081 27.65-70.008z" fill="#69b8d4"/></g><g><path d="m510.47 284h-17.264c-8.284 0-15-6.716-15-15s-6.716-15-15-15h-260.23c-8.284 0-15 6.716-15 15s6.716 15 15 15h74.456c8.284 0 15 6.716 15 15s-6.716 15-15 15h-14.728c-8.284 0-15 6.716-15 15s6.716 15 15 15h139.229c8.284 0 15-6.716 15-15s6.716-15 15-15h73.466c2.269-9.795 3.962-19.81 5.071-30z" fill="#4da3ba"/></g><g><path d="m93.003 58.591h86.725c8.284 0 15 6.716 15 15s6.716 15 15 15h30.528c8.284 0 15 6.716 15 15s-6.716 15-15 15h-122.87c-8.284 0-15-6.716-15-15s-6.716-15-15-15h-25.064c9.371-10.833 19.637-20.871 30.681-30z" fill="#4da3ba"/></g><g><g><path d="m314.433 168.702 9.472 22.867c.894 2.159 3.07 3.504 5.401 3.338 19.701-1.4 38.416-9.152 53.337-22.093 1.766-1.531 2.353-4.021 1.459-6.18l-9.472-22.867c-.894-2.159-3.07-3.504-5.401-3.338-19.701 1.4-38.416 9.152-53.337 22.093-1.765 1.531-2.353 4.02-1.459 6.18z" fill="#ccc"/></g><g><path d="m364.918 139.918 15.039 36.306c1.585 3.827 5.972 5.644 9.799 4.059 3.827-1.585 5.644-5.972 4.059-9.799l-15.039-36.306c-1.585-3.827-5.972-5.644-9.799-4.059-3.827 1.585-5.644 5.972-4.059 9.799z" fill="#f73e3e"/></g><g><path d="m143.702 201.097-117.903-60.448c-2.835-1.454-6.166-1.589-9.11-.369l-13.335 5.524c-3.319 1.375-4.412 5.536-2.197 8.364l71.698 91.557z" fill="#f73e3e"/></g><g><path d="m9.29 143.344-5.936 2.459c-3.319 1.375-4.412 5.536-2.197 8.364l71.698 91.557-3.291-44.303c-.441-5.934-3.297-11.427-7.9-15.196z" fill="#d82525"/></g><g><path d="m505.296 103.039-161.414 66.86c-101.045 41.854-205.184 75.808-311.48 101.555-5.886 1.426-9.334-6.396-4.312-9.78 66.633-44.896 137.597-83.004 211.828-113.752l161.5-66.895c33.532-13.889 71.345-13.119 104.284 2.124 8.587 3.974 8.337 16.267-.406 19.888z" fill="#e6e6e6"/></g><g><path d="m267.333 136.566-27.416 11.356c-74.231 30.748-145.194 68.855-211.828 113.752-5.022 3.384-1.573 11.206 4.312 9.78 87.51-21.197 173.554-47.969 257.617-80.119v-.001c-15.124 6.264-32.462-.917-38.726-16.041s.918-32.462 16.041-38.727z" fill="#ccc"/></g><g><path d="m318.184 168.944-136.094 23.204c-3.998.682-7.906 1.809-11.653 3.361l-15.127 6.266c-2.161.895-1.574 4.105.764 4.177l120.202 3.704 50.164-20.779z" fill="#d82525"/></g><g><path d="m322.642 208.083-31.739 8.727c-5.982 1.645-12.252-1.422-14.627-7.154-2.374-5.732-.109-12.334 5.284-15.401l28.614-16.271z" fill="#f73e3e"/></g><g><path d="m291.606 189.911 9.472 22.867c.894 2.159 3.07 3.504 5.401 3.338 19.701-1.4 38.416-9.152 53.337-22.093 1.766-1.531 2.353-4.021 1.459-6.18l-9.472-22.867c-.894-2.159-3.07-3.504-5.401-3.338-19.701 1.4-38.416 9.152-53.337 22.093-1.765 1.532-2.353 4.021-1.459 6.18z" fill="#e6e6e6"/></g><g><path d="m342.091 161.127 15.039 36.306c1.585 3.827 5.972 5.644 9.799 4.059 3.827-1.585 5.644-5.972 4.059-9.799l-15.039-36.306c-1.585-3.827-5.972-5.644-9.799-4.059-3.827 1.585-5.644 5.972-4.059 9.799z" fill="#f73e3e"/></g><g><path d="m89.937 234.448-89.456 37.054c.314 5.261.783 10.481 1.41 15.652l93.786-38.848c3.827-1.585 5.644-5.972 4.059-9.799s-5.972-5.644-9.799-4.059z" fill="#d82525"/></g><g><path d="m465.825 71.98-39.046 16.173c3.443 8.312 12.971 12.258 21.283 8.816l45.316-18.77c-8.979-3.088-18.22-5.157-27.553-6.219z" fill="#5d91c9"/></g><g><path d="m446.845 79.842-20.066 8.312c3.443 8.312 12.971 12.258 21.283 8.816l20.066-8.312c-8.312 3.442-17.841-.505-21.283-8.816z" fill="#3d72a3"/></g><g><path d="m322.048 191.041c-4.134-9.981-.325-21.25 8.498-26.842-13.778 3.477-26.634 10.125-37.48 19.532-1.766 1.531-2.353 4.021-1.459 6.18l9.472 22.867c.894 2.159 3.07 3.504 5.401 3.338 13.723-.975 26.964-5.041 38.781-11.787-9.631 1.333-19.319-3.886-23.213-13.288z" fill="#ccc"/></g></g><g><path d="m434.75 428 17.386-7.49c9.547-11.371 18.128-23.582 25.607-36.51h-443.486c7.479 12.928 16.06 25.139 25.607 36.51l17.386 7.49-3.764 7.494c46.439 47.219 111.053 76.506 182.514 76.506s136.075-29.287 182.514-76.506z" fill="#564d47"/></g><g><path d="m288 384h-253.743c7.479 12.928 16.06 25.139 25.607 36.51l17.386 7.49-3.764 7.494c46.439 47.219 111.053 76.506 182.514 76.506 7.199 0 14.325-.312 21.374-.895-30.286-5.063-53.374-31.381-53.374-63.105 0-35.346 28.654-64 64-64z" fill="#2b2b2b"/></g><g><path d="m308.5 435.5h-105c-4.142 0-7.5-3.358-7.5-7.5 0-4.142 3.358-7.5 7.5-7.5h105c4.142 0 7.5 3.358 7.5 7.5 0 4.142-3.358 7.5-7.5 7.5z" fill="#e6e6e6"/></g><g><path d="m452.145 420.5h-52.645c-4.142 0-7.5 3.358-7.5 7.5s3.358 7.5 7.5 7.5h39.009c4.738-4.818 9.288-9.821 13.636-15z" fill="#e6e6e6"/></g><g><path d="m112.5 420.5h-52.645c4.348 5.179 8.898 10.182 13.636 15h39.009c4.142 0 7.5-3.358 7.5-7.5s-3.358-7.5-7.5-7.5z" fill="#e6e6e6"/></g></g></svg>